<svg width="18" height="7" viewBox="0 0 18 7" fill="none" xmlns="http://www.w3.org/2000/svg">
<g id="Group">
<path id="Vector" d="M17.2083 2.91667H16.5725C16.2951 1.26408 14.8662 0 13.146 0C11.4479 0 10.0263 1.20138 9.69704 2.79387C9.41383 2.55646 9.09067 2.43046 8.75 2.43046C8.40963 2.43046 8.08675 2.55646 7.80354 2.79358C7.47804 1.20108 6.07396 0 4.396 0C2.55383 0 1.03979 1.41487 0.889875 3.20833H0.291667C0.214312 3.20833 0.140125 3.23906 0.0854272 3.29376C0.0307291 3.34846 0 3.42265 0 3.5C0 3.57735 0.0307291 3.65154 0.0854272 3.70624C0.140125 3.76094 0.214312 3.79167 0.291667 3.79167H0.889875C1.03979 5.58512 2.55383 7 4.396 7C6.28221 7 7.819 5.48129 7.87004 3.59596C8.11883 3.22117 8.42858 3.01379 8.75 3.01379C9.07142 3.01379 9.38117 3.22146 9.62996 3.59596C9.68187 5.48129 11.2373 7 13.146 7C15.0643 7 16.625 5.42996 16.625 3.5H17.2083C17.2857 3.5 17.3599 3.46927 17.4146 3.41457C17.4693 3.35987 17.5 3.28569 17.5 3.20833C17.5 3.13098 17.4693 3.05679 17.4146 3.00209C17.3599 2.9474 17.2857 2.91667 17.2083 2.91667ZM4.396 6.41667C2.77637 6.41667 1.45833 5.10825 1.45833 3.5C1.45833 1.89175 2.77637 0.583333 4.396 0.583333C6.02 0.583333 7.29167 1.86462 7.29167 3.5C7.29167 5.13538 6.02 6.41667 4.396 6.41667ZM13.146 6.41667C11.5264 6.41667 10.2083 5.10825 10.2083 3.5C10.2083 1.89175 11.5264 0.583333 13.146 0.583333C14.77 0.583333 16.0417 1.86462 16.0417 3.5C16.0417 5.13538 14.77 6.41667 13.146 6.41667Z" fill="#293036"/>
</g>
</svg>
